# xmcd CD database file
#
# Track frame offsets:
#	180
#	14667
#	36734
#	53040
#	66630
#	81858
#	93639
#	113764
#	127028
#	142374
#	155625
#	170348
#	183720
#	204542
#	219158
#	232343
#	246508
#	258405
#	273002
#	296120
#
# Disc length: 4142 seconds
#
# Revision: 0
# Processed by: cddbd v1.5.2PL0 Copyright (c) Steve Scherf et al.
# Submitted via: CDex 1.51
#
DISCID=4a102c14
DTITLE=Various Artist - Jazz Anthology 1943-1944, Les Année Du Jazz - Memorable Jazz Hi-Lites [CD 1)
DYEAR=1995
DGENRE=Jazz
TTITLE0=Leonard Feather All Stars - Esquire Bounce
TTITLE1=Louis Armstrong and The V-Disc All Stars - Jack Armstrong Blues
TTITLE2=Esquire All Stars - Back O' Town Blues
TTITLE3=Charlie Barnet and His Orchestra - Skyliner
TTITLE4=Count Basie and His Orchestra - Taps Miller
TTITLE5=Count Basie and His Orchestra - Red Bank Boogie
TTITLE6=Sidney Bechet - Blue Horizon
TTITLE7=Don Byas With Big Sid Catlett Quartet - These Foolish Things
TTITLE8=King Cole Trio - Body And Soul
TTITLE9=King Cole Trio - It's Only A Paper Moon
TTITLE10=Tommy Dorsey and His Orchestra - On The Sunny Side Of The Street
TTITLE11=Tommy Dorsey and His Orchestra - Opus Number One
TTITLE12=Duke Ellington and His Orchestra - Work Song
TTITLE13=Duke Ellington and His Orchestra - I'm Beginning To See The Light
TTITLE14=Ella Fitzgerald With The Ink Spots - Cow Cow Boogie
TTITLE15=Billy Eckstine and His Orchestra - Blowing The Blues Away
TTITLE16=Billy Eckstine and His Orchestra - Opus X
TTITLE17=Benny Goodman and His Orchestra - After You've Gone
TTITLE18=Coleman Hawkins' Swing Four - The Man I Love
TTITLE19=Coleman Hawkins Quintet Feat. Teddy Wilson - I'm In The Mood For Love
EXTD=YEAR: 1995
EXTT0=
EXTT1=
EXTT2=
EXTT3=
EXTT4=
EXTT5=
EXTT6=
EXTT7=
EXTT8=
EXTT9=
EXTT10=
EXTT11=
EXTT12=
EXTT13=
EXTT14=
EXTT15=
EXTT16=
EXTT17=
EXTT18=
EXTT19=
PLAYORDER=
